<svg width="26" height="27" viewBox="0 0 26 27" fill="none" xmlns="http://www.w3.org/2000/svg">
<path fill-rule="evenodd" clip-rule="evenodd" d="M0.958252 11.2571C0.958252 5.12394 6.40375 0.166748 12.9906 0.166748C19.5961 0.166748 25.0416 5.12394 25.0416 11.2571C25.0416 14.3477 23.8473 17.2169 21.8817 19.6488C19.7132 22.3314 17.0405 24.6687 14.032 26.5033C13.3435 26.9273 12.7221 26.9593 11.9664 26.5033C8.94079 24.6687 6.26804 22.3314 4.11813 19.6488C2.15106 17.2169 0.958252 14.3477 0.958252 11.2571ZM9.02508 11.6024C9.02508 13.657 10.8064 15.273 12.9906 15.273C15.1763 15.273 16.9748 13.657 16.9748 11.6024C16.9748 9.56381 15.1763 7.86919 12.9906 7.86919C10.8064 7.86919 9.02508 9.56381 9.02508 11.6024Z" fill="#F0502D"/>
</svg>
