<svg width="122" height="224" viewBox="0 0 122 224" fill="none" xmlns="http://www.w3.org/2000/svg">
<path d="M45.3101 159.464V153.712C45.3811 142.49 46.624 133.364 49.0388 126.332C51.4536 119.301 55.0047 113.371 59.6922 108.541C64.4507 103.641 70.3456 98.9531 77.3769 94.4787C82.6326 91.0696 87.036 87.483 90.5871 83.7188C94.2093 79.8835 96.9436 75.6932 98.7902 71.1477C100.708 66.5312 101.667 61.5241 101.667 56.1264C101.667 48.456 99.8556 41.7443 96.2334 35.9915C92.6823 30.2386 87.8527 25.7997 81.7448 22.6747C75.6368 19.4787 68.8541 17.8807 61.3968 17.8807C54.2945 17.8807 47.6539 19.4432 41.4749 22.5682C35.3669 25.6222 30.3598 30.1676 26.4536 36.2045C22.6184 42.1705 20.5232 49.5568 20.1681 58.3636H0.033125C0.388239 46.6449 3.30017 36.4886 8.76892 27.8949C14.2377 19.3011 21.553 12.6605 30.7149 7.97301C39.8769 3.21448 50.1042 0.835219 61.3968 0.835219C73.1865 0.835219 83.5559 3.28551 92.5047 8.18608C101.454 13.0156 108.449 19.6562 113.492 28.108C118.535 36.4886 121.056 46.1122 121.056 56.9787C121.056 64.152 119.919 70.6861 117.647 76.581C115.374 82.4759 111.965 87.9091 107.419 92.8807C102.945 97.8523 97.3343 102.54 90.5871 106.943C84.1951 111.205 79.1169 115.43 75.3527 119.621C71.5885 123.811 68.8897 128.605 67.2561 134.003C65.6226 139.33 64.7348 145.899 64.5928 153.712V159.464H45.3101ZM55.5374 223.598C51.347 223.598 47.7249 222.107 44.6709 219.124C41.688 216.07 40.1965 212.447 40.1965 208.257C40.1965 203.996 41.688 200.374 44.6709 197.391C47.7249 194.408 51.347 192.916 55.5374 192.916C59.7277 192.916 63.3144 194.408 66.2973 197.391C69.3513 200.374 70.8783 203.996 70.8783 208.257C70.8783 211.027 70.1681 213.584 68.7476 215.928C67.3982 218.271 65.5516 220.153 63.2078 221.574C60.9351 222.923 58.3783 223.598 55.5374 223.598Z" fill="#F0502D"/>
</svg>
