<svg width="46" height="46" viewBox="0 0 46 46" fill="none" xmlns="http://www.w3.org/2000/svg">
<path opacity="0.4" d="M32.9465 0.0828857H13.0778C5.30905 0.0828857 0.0840454 5.53705 0.0840454 13.6496V32.3725C0.0840454 40.4621 5.30905 45.9162 13.0778 45.9162H32.9465C40.7153 45.9162 45.9174 40.4621 45.9174 32.3725V13.6496C45.9174 5.53705 40.7153 0.0828857 32.9465 0.0828857Z" fill="#60DCFF"/>
<path d="M20.2807 30.4431C19.7674 30.4431 19.2541 30.2483 18.8622 29.8564L13.4241 24.4183C12.6403 23.6346 12.6403 22.365 13.4241 21.5835C14.2078 20.7998 15.4751 20.7975 16.2588 21.5812L20.2807 25.6031L29.7407 16.1431C30.5245 15.3594 31.7918 15.3594 32.5755 16.1431C33.3593 16.9269 33.3593 18.1964 32.5755 18.9802L21.6993 29.8564C21.3074 30.2483 20.7941 30.4431 20.2807 30.4431Z" fill="#F0502D"/>
</svg>
