<svg width="30" height="24" viewBox="0 0 30 24" fill="none" xmlns="http://www.w3.org/2000/svg">
<path fill-rule="evenodd" clip-rule="evenodd" d="M21.9976 0.75C23.8973 0.75 25.7248 1.4125 27.0692 2.60125C28.4151 3.7875 29.1673 5.3875 29.1673 7.0625V16.9375C29.1673 20.425 25.9515 23.25 21.9976 23.25H8.00232C4.0484 23.25 0.833984 20.425 0.833984 16.9375V7.0625C0.833984 3.575 4.03423 0.75 8.00232 0.75H21.9976ZM24.2515 8.925L24.3648 8.825C24.7034 8.4625 24.7034 7.9375 24.3492 7.575C24.1523 7.38875 23.8817 7.275 23.5998 7.25C23.3023 7.23625 23.019 7.325 22.8051 7.5L16.4173 12C15.5957 12.6013 14.4184 12.6013 13.584 12L7.20898 7.5C6.7684 7.2125 6.15923 7.25 5.79232 7.5875C5.40982 7.925 5.36732 8.4625 5.69173 8.8375L5.87732 9L12.3232 13.4375C13.1165 13.9875 14.0784 14.2875 15.0857 14.2875C16.0901 14.2875 17.069 13.9875 17.8609 13.4375L24.2515 8.925Z" fill="#F0502D"/>
</svg>
