<svg width="25" height="24" viewBox="0 0 25 24" fill="none" xmlns="http://www.w3.org/2000/svg">
<path d="M12.5 0.125C9.35157 0.128312 6.33305 1.38049 4.10677 3.60676C1.88049 5.83304 0.628312 8.85157 0.625012 12C0.636987 13.8022 1.06476 15.5775 1.87501 17.1875L0.625012 23.125C0.60455 23.2259 0.60985 23.3304 0.640438 23.4286C0.671025 23.527 0.725913 23.616 0.800013 23.6875C0.857225 23.7491 0.927012 23.7977 1.00464 23.8301C1.08227 23.8625 1.16595 23.8778 1.25001 23.875H1.37501L7.31251 22.6875C8.92246 23.4977 10.6978 23.9255 12.5 23.9375C15.6495 23.9375 18.6699 22.6864 20.8969 20.4594C23.1239 18.2324 24.375 15.212 24.375 12.0625C24.375 8.91305 23.1239 5.8926 20.8969 3.66561C18.6699 1.43861 15.6495 0.1875 12.5 0.1875V0.125ZM8.30001 9.2375V9.1125C8.4296 8.73301 8.65365 8.39275 8.95106 8.12378C9.24846 7.85479 9.60945 7.66594 10 7.575C10.0996 7.56296 10.2004 7.56296 10.3 7.575C10.454 7.57444 10.6066 7.60516 10.7484 7.66533C10.8902 7.7255 11.0184 7.81384 11.125 7.925L11.275 8.125L12.0625 9.4375C12.2122 9.68662 12.2705 9.98025 12.2271 10.2677C12.1838 10.5553 12.0416 10.8185 11.825 11.0125L11.3875 11.4C11.5822 11.7909 11.8304 12.1526 12.125 12.475C12.4275 12.778 12.7729 13.0349 13.15 13.2375L13.55 12.8375C13.6658 12.7194 13.8039 12.6254 13.9561 12.561C14.1085 12.4966 14.2721 12.4631 14.4375 12.4625C14.6855 12.4583 14.9291 12.5279 15.1375 12.6625L16.3875 13.5125L16.575 13.675C16.7178 13.823 16.8166 14.0076 16.8608 14.2084C16.9049 14.4093 16.8925 14.6182 16.825 14.8125C16.7076 15.1819 16.4998 15.5159 16.2203 15.7845C15.9409 16.053 15.5988 16.2474 15.225 16.35H15.1C14.8229 16.425 14.5371 16.4629 14.25 16.4625C13.7955 16.4627 13.3468 16.3603 12.9375 16.1625C12.1599 15.799 11.4564 15.2948 10.8625 14.675L9.78751 13.5375C9.18356 12.9225 8.70396 12.1968 8.37501 11.4C8.08884 10.712 8.06219 9.94363 8.30001 9.2375Z" fill="#F0502D"/>
</svg>
